<?xml version="1.0" encoding="UTF-8" standalone="no"?>
<!-- Created with Inkscape (http://www.inkscape.org/) -->

<svg
   width="120mm"
   height="90mm"
   viewBox="0 0 120 90"
   version="1.1"
   id="svg5338"
   inkscape:version="1.1 (c68e22c387, 2021-05-23)"
   sodipodi:docname="fourier-waveform.svg"
   xmlns:inkscape="http://www.inkscape.org/namespaces/inkscape"
   xmlns:sodipodi="http://sodipodi.sourceforge.net/DTD/sodipodi-0.dtd"
   xmlns="http://www.w3.org/2000/svg"
   xmlns:svg="http://www.w3.org/2000/svg">
  <sodipodi:namedview
     id="namedview5340"
     pagecolor="#ffffff"
     bordercolor="#666666"
     borderopacity="1.0"
     inkscape:pageshadow="2"
     inkscape:pageopacity="0.0"
     inkscape:pagecheckerboard="0"
     inkscape:document-units="mm"
     showgrid="false"
     inkscape:zoom="1.3416246"
     inkscape:cx="219.13731"
     inkscape:cy="135.28375"
     inkscape:window-width="1920"
     inkscape:window-height="1001"
     inkscape:window-x="-9"
     inkscape:window-y="-9"
     inkscape:window-maximized="1"
     inkscape:current-layer="layer1" />
  <defs
     id="defs5335">
    <clipPath
       id="clipPath6978">
      <rect
         style="fill:none;fill-opacity:0.15;stroke:#000000;stroke-width:0.499999;stroke-linecap:round;stroke-miterlimit:4;stroke-dasharray:none;stroke-opacity:1"
         width="99.748421"
         height="61.647919"
         x="828.67505"
         y="138.37708"
         id="rect41128" />
    </clipPath>
  </defs>
  <g
     inkscape:label="Layer 1"
     inkscape:groupmode="layer"
     id="layer1">
    <path
       inkscape:connector-curvature="0"
       id="path849-4-7"
       d="m 22.572225,14.646925 v 66.07113"
       style="fill:none;stroke:#000000;stroke-width:0.300001;stroke-linecap:round;stroke-linejoin:round;stroke-miterlimit:4;stroke-dasharray:none;stroke-opacity:1"
       inkscape:export-filename="C:\Users\Admin\Desktop\Apunte Señales\PNG\spec-vs-wave-1.png"
       inkscape:export-xdpi="300"
       inkscape:export-ydpi="300" />
    <path
       sodipodi:nodetypes="cccc"
       inkscape:connector-curvature="0"
       id="path872-3-9"
       d="m 22.572225,14.394465 h -1.31852 c 0,0 1.0788,-0.67126 1.31852,-5.13025 0.23972,4.45899 1.31852,5.13025 1.31852,5.13025 z"
       style="fill:#000000;fill-opacity:1;stroke:#000000;stroke-width:0.264999;stroke-linecap:round;stroke-linejoin:round;stroke-miterlimit:4;stroke-dasharray:none;stroke-opacity:1"
       inkscape:export-filename="C:\Users\Admin\Desktop\Apunte Señales\PNG\spec-vs-wave-1.png"
       inkscape:export-xdpi="300"
       inkscape:export-ydpi="300" />
    <path
       inkscape:connector-curvature="0"
       id="path849-4-3-7"
       d="M 102.89858,47.682485 H 11.988895"
       style="fill:none;stroke:#000000;stroke-width:0.3;stroke-linecap:round;stroke-linejoin:round;stroke-miterlimit:4;stroke-dasharray:none;stroke-opacity:1"
       inkscape:export-filename="C:\Users\Admin\Desktop\Apunte Señales\PNG\spec-vs-wave-1.png"
       inkscape:export-xdpi="300"
       inkscape:export-ydpi="300" />
    <path
       sodipodi:nodetypes="cccc"
       inkscape:connector-curvature="0"
       id="path872-3-4-8"
       d="m 102.89858,47.682485 v -1.31852 c 0,0 0.67127,1.0788 5.13026,1.31852 -4.45899,0.23972 -5.13026,1.31852 -5.13026,1.31852 z"
       style="fill:#000000;fill-opacity:1;stroke:#000000;stroke-width:0.264999;stroke-linecap:round;stroke-linejoin:round;stroke-miterlimit:4;stroke-dasharray:none;stroke-opacity:1"
       inkscape:export-filename="C:\Users\Admin\Desktop\Apunte Señales\PNG\spec-vs-wave-1.png"
       inkscape:export-xdpi="300"
       inkscape:export-ydpi="300" />
    <path
       style="fill:none;fill-opacity:0.15;stroke:#000000;stroke-width:0.584081;stroke-linecap:round;stroke-miterlimit:4;stroke-dasharray:none;stroke-opacity:1"
       d="m 828.675,185.799 c 0.336,1.027 0.672,1.629 1.008,1.801 0.335,0.173 0.671,-0.085 1.007,-0.712 0.336,-0.627 0.672,-1.625 1.008,-2.883 0.336,-1.258 0.671,-2.777 1.007,-4.417 0.336,-1.639 0.672,-3.398 1.008,-5.129 0.336,-1.731 0.672,-3.432 1.007,-4.971 0.336,-1.539 0.672,-2.913 1.008,-4.028 0.336,-1.115 0.672,-1.968 1.008,-2.512 0.335,-0.544 0.671,-0.778 1.007,-0.712 0.336,0.067 0.672,0.435 1.008,1.043 0.336,0.607 0.671,1.455 1.007,2.439 0.336,0.984 0.672,2.104 1.008,3.235 0.336,1.13 0.671,2.269 1.007,3.291 0.336,1.021 0.672,1.922 1.008,2.598 0.336,0.675 0.672,1.122 1.007,1.276 0.336,0.153 0.672,0.009 1.008,-0.445 0.336,-0.454 0.672,-1.22 1.008,-2.258 0.335,-1.038 0.671,-2.347 1.007,-3.836 0.336,-1.49 0.672,-3.159 1.008,-4.878 0.336,-1.72 0.671,-3.489 1.007,-5.16 0.336,-1.672 0.672,-3.244 1.008,-4.575 0.336,-1.332 0.672,-2.42 1.007,-3.153 0.336,-0.733 0.672,-1.108 1.008,-1.06 0.336,0.048 0.672,0.522 1.007,1.426 0.336,0.904 0.672,2.24 1.008,3.949 0.336,1.709 0.672,3.792 1.008,6.133 0.335,2.34 0.671,4.938 1.007,7.633 0.336,2.696 0.672,5.488 1.008,8.195 0.336,2.708 0.671,5.33 1.007,7.689 0.336,2.359 0.672,4.453 1.008,6.134 0.336,1.681 0.672,2.947 1.007,3.702 0.336,0.754 0.672,0.995 1.008,0.691 0.336,-0.303 0.672,-1.154 1.008,-2.509 0.335,-1.354 0.671,-3.216 1.007,-5.476 0.336,-2.259 0.672,-4.918 1.008,-7.814 0.335,-2.896 0.671,-6.03 1.007,-9.208 0.336,-3.178 0.672,-6.399 1.008,-9.467 0.336,-3.067 0.671,-5.978 1.007,-8.556 0.336,-2.579 0.672,-4.823 1.008,-6.602 0.336,-1.779 0.672,-3.089 1.007,-3.865 0.336,-0.775 0.672,-1.012 1.008,-0.715 0.336,0.298 0.672,1.132 1.008,2.43 0.335,1.298 0.671,3.061 1.007,5.159 0.336,2.098 0.672,4.53 1.008,7.129 0.336,2.598 0.671,5.361 1.007,8.106 0.336,2.746 0.672,5.472 1.008,8.007 0.336,2.536 0.672,4.878 1.007,6.893 0.336,2.015 0.672,3.699 1.008,4.971 0.336,1.272 0.672,2.129 1.007,2.552 0.336,0.422 0.672,0.409 1.008,0.003 0.336,-0.406 0.672,-1.206 1.008,-2.302 0.335,-1.097 0.671,-2.491 1.007,-4.047 0.336,-1.557 0.672,-3.277 1.008,-5.012 0.336,-1.734 0.671,-3.482 1.007,-5.104 0.336,-1.623 0.672,-3.117 1.008,-4.376 0.336,-1.258 0.672,-2.278 1.007,-2.999 0.336,-0.72 0.672,-1.139 1.008,-1.248 0.336,-0.11 0.672,0.09 1.008,0.553 0.335,0.462 0.671,1.188 1.007,2.083 0.336,0.896 0.672,1.961 1.008,3.075 0.335,1.114 0.671,2.275 1.007,3.354 0.336,1.079 0.672,2.075 1.008,2.874 0.336,0.798 0.671,1.396 1.007,1.716 0.336,0.319 0.672,0.357 1.008,0.083 0.336,-0.274 0.672,-0.861 1.007,-1.737 0.336,-0.876 0.672,-2.041 1.008,-3.418 0.336,-1.376 0.672,-2.964 1.008,-4.643 0.335,-1.68 0.671,-3.449 1.007,-5.165 0.336,-1.716 0.672,-3.377 1.008,-4.837 0.336,-1.46 0.671,-2.717 1.007,-3.649 0.336,-0.931 0.672,-1.533 1.008,-1.727 0.336,-0.193 0.672,0.025 1.007,0.678 0.336,0.653 0.672,1.743 1.008,3.229 0.336,1.486 0.672,3.37 1.007,5.55 0.336,2.18 0.672,4.657 1.008,7.282 0.336,2.625 0.672,5.397 1.008,8.139 0.335,2.741 0.671,5.451 1.007,7.949 0.336,2.498 0.672,4.78 1.008,6.69 0.336,1.91 0.671,3.444 1.007,4.489 0.336,1.045 0.672,1.599 1.008,1.61 0.336,0.012 0.672,-0.52 1.007,-1.577 0.336,-1.056 0.672,-2.638 1.008,-4.656 0.336,-2.018 0.672,-4.472 1.008,-7.216 0.335,-2.743 0.671,-5.776 1.007,-8.911 0.336,-3.136 0.672,-6.373 1.008,-9.514 0.335,-3.14 0.671,-6.182 1.007,-8.94 0.336,-2.758 0.672,-5.229 1.008,-7.268 0.336,-2.04 0.671,-3.644 1.007,-4.727 0.336,-1.083 0.672,-1.64 1.008,-1.655 0.336,-0.016 0.672,0.514 1.007,1.535 0.336,1.02 0.672,2.534 1.008,4.425 0.336,1.891 0.672,4.16 1.008,6.647 0.335,2.487 0.671,5.191 1.007,7.931 0.336,2.74 0.672,5.514 1.008,8.146 0.336,2.633 0.671,5.12 1.007,7.315 0.336,2.195 0.672,4.094 1.008,5.6 0.336,1.506 0.671,2.615 1.007,3.29 0.336,0.675 0.672,0.913 1.008,0.74 0.336,-0.173 0.672,-0.758 1.007,-1.673"
       title="5*sin(2*pi*2*x+pi)+7*sin(2*pi*3*x-0.5*pi)"
       clip-path="url(#clipPath6978)"
       id="path41586"
       transform="matrix(0.77774713,0,0,0.94222033,-622.03016,-111.71935)"
       inkscape:export-filename="C:\Users\Admin\Desktop\Apunte Señales\PNG\spec-vs-wave-1.png"
       inkscape:export-xdpi="300"
       inkscape:export-ydpi="300" />
    <text
       xml:space="preserve"
       style="font-style:normal;font-weight:normal;font-size:6.20454px;line-height:1.25;font-family:sans-serif;fill:#000000;fill-opacity:1;stroke:none;stroke-width:0.264583"
       x="10.191958"
       y="12.801722"
       id="text1847"><tspan
         sodipodi:role="line"
         id="tspan1845"
         style="stroke-width:0.264583"
         x="10.191958"
         y="12.801722">$x$</tspan></text>
    <text
       xml:space="preserve"
       style="font-style:normal;font-weight:normal;font-size:6.20454px;line-height:1.25;font-family:sans-serif;fill:#000000;fill-opacity:1;stroke:none;stroke-width:0.264583"
       x="100.15028"
       y="44.551723"
       id="text2298"><tspan
         sodipodi:role="line"
         id="tspan2296"
         style="stroke-width:0.264583"
         x="100.15028"
         y="44.551723">$t$</tspan></text>
  </g>
</svg>
